# xmcd
#
# Track frame offsets: 
#        150
#        12460
#        34587
#        52432
#        68027
#        85410
#        103000
#        122847
#        138187
#        154657
#
# Disc length: 2266 seconds
#
# Revision: 0
# Processed by: cddbd v1.5.2PL0 Copyright (c) Steve Scherf et al.
# Submitted via: ExactAudioCopy v0.99pb1
#
DISCID=8708d80a
DTITLE=Doug Allan - More Than Words Could Say
DYEAR=1996
DGENRE=Country
TTITLE0=Another Lonely Night
TTITLE1=We Were Young
TTITLE2=Last Broken Heart
TTITLE3=In Each Other's Arms
TTITLE4=Too Much Month
TTITLE5=Thinking About You
TTITLE6=More Than Words Can Say
TTITLE7=Kids of My Own
TTITLE8=You Threw It Away
TTITLE9=Find Your Way Back
EXTD=
EXTT0=
EXTT1=
EXTT2=
EXTT3=
EXTT4=
EXTT5=
EXTT6=
EXTT7=
EXTT8=
EXTT9=
PLAYORDER=
